<?xml version="1.0" encoding="UTF-8"?>
<svg xmlns="http://www.w3.org/2000/svg" xmlns:xlink="http://www.w3.org/1999/xlink" stroke-dasharray="none" shape-rendering="auto" font-family="'Dialog'" width="306" text-rendering="auto" fill-opacity="1" contentScriptType="text/ecmascript" color-interpolation="auto" color-rendering="auto" preserveAspectRatio="xMidYMid meet" font-size="12" viewBox="0 0 306 250" fill="black" stroke="black" image-rendering="auto" stroke-miterlimit="10" zoomAndPan="magnify" version="1.0" stroke-linecap="square" stroke-linejoin="miter" contentStyleType="text/css" font-style="normal" height="250" stroke-width="1" stroke-dashoffset="0" font-weight="normal" stroke-opacity="1">
  <!--Generated by the Batik Graphics2D SVG Generator-->
  <defs id="genericDefs" />
  <g>
    <defs id="defs1">
      <clipPath clipPathUnits="userSpaceOnUse" id="clipPath1">
        <path d="M45 9 L117 9 L117 41 L45 41 L45 9 Z" />
      </clipPath>
      <clipPath clipPathUnits="userSpaceOnUse" id="clipPath2">
        <path d="M75 39 L87 39 L87 241 L75 241 L75 39 Z" />
      </clipPath>
      <clipPath clipPathUnits="userSpaceOnUse" id="clipPath3">
        <path d="M145 9 L297 9 L297 61 L145 61 L145 9 Z" />
      </clipPath>
      <clipPath clipPathUnits="userSpaceOnUse" id="clipPath4">
        <path d="M145 9 L303 9 L303 61 L145 61 L145 9 Z" />
      </clipPath>
      <clipPath clipPathUnits="userSpaceOnUse" id="clipPath5">
        <path d="M145 9 L302 9 L302 61 L145 61 L145 9 Z" />
      </clipPath>
      <clipPath clipPathUnits="userSpaceOnUse" id="clipPath6">
        <path d="M215 59 L227 59 L227 241 L215 241 L215 59 Z" />
      </clipPath>
      <clipPath clipPathUnits="userSpaceOnUse" id="clipPath7">
        <path d="M210 89 L232 89 L232 131 L210 131 L210 89 Z" />
      </clipPath>
      <clipPath clipPathUnits="userSpaceOnUse" id="clipPath8">
        <path d="M231 89 L272 89 L272 122 L231 122 L231 89 Z" />
      </clipPath>
      <clipPath clipPathUnits="userSpaceOnUse" id="clipPath9">
        <path d="M210 149 L232 149 L232 191 L210 191 L210 149 Z" />
      </clipPath>
      <clipPath clipPathUnits="userSpaceOnUse" id="clipPath10">
        <path d="M231 149 L281 149 L281 182 L231 182 L231 149 Z" />
      </clipPath>
      <clipPath clipPathUnits="userSpaceOnUse" id="clipPath11">
        <path d="M-1 -1 L307 -1 L307 251 L-1 251 L-1 -1 Z" />
      </clipPath>
      <clipPath clipPathUnits="userSpaceOnUse" id="clipPath12">
        <path d="M68 64 L229 64 L229 97 L68 97 L68 64 Z" />
      </clipPath>
      <clipPath clipPathUnits="userSpaceOnUse" id="clipPath13">
        <path d="M79 85 L91 85 L91 96 L79 96 L79 85 Z" />
      </clipPath>
      <clipPath clipPathUnits="userSpaceOnUse" id="clipPath14">
        <path d="M23 124 L275 124 L275 157 L23 157 L23 124 Z" />
      </clipPath>
      <clipPath clipPathUnits="userSpaceOnUse" id="clipPath15">
        <path d="M202 145 L214 145 L214 156 L202 156 L202 145 Z" />
      </clipPath>
    </defs>
    <g font-size="15" fill="rgb(238,201,142)" font-family="'Segoe UI'" stroke-linejoin="round" stroke="rgb(238,201,142)" stroke-width="0" stroke-miterlimit="0">
      <rect x="46" y="10" clip-path="url(#clipPath1)" width="70" height="30" stroke="none" />
    </g>
    <g stroke-width="0.1" font-size="15" font-family="'Segoe UI'" stroke-linecap="butt">
      <rect x="46" y="10" clip-path="url(#clipPath1)" fill="none" width="69" height="29" />
      <line clip-path="url(#clipPath2)" fill="none" x1="80" x2="80" y1="40" y2="240" stroke-dasharray="10,10" stroke-width="1.1" />
    </g>
    <g stroke-linecap="butt" font-size="15" fill="rgb(255,245,181)" font-family="'Segoe UI'" stroke-dasharray="10,10" stroke="rgb(255,245,181)" stroke-width="1.1">
      <rect x="146" y="10" clip-path="url(#clipPath3)" width="150" height="50" stroke="none" />
    </g>
    <g stroke-width="0.1" font-size="15" font-family="'Segoe UI'" stroke-linecap="butt">
      <rect x="146" y="10" clip-path="url(#clipPath3)" fill="none" width="149" height="49" />
      <text x="201" font-size="23" y="29" clip-path="url(#clipPath4)" stroke="none" xml:space="preserve">g06</text>
      <text x="180" font-size="23" y="60" clip-path="url(#clipPath5)" stroke="none" xml:space="preserve">: actYou</text>
      <line clip-path="url(#clipPath6)" fill="none" x1="220" x2="220" y1="60" y2="240" stroke-dasharray="10,10" stroke-width="1.1" />
    </g>
    <g stroke-linecap="butt" font-size="15" fill="rgb(39,76,114)" font-family="'Segoe UI'" stroke-dasharray="10,10" stroke="rgb(39,76,114)" stroke-width="1.1">
      <rect x="211" y="90" clip-path="url(#clipPath7)" width="20" height="40" stroke="none" />
      <rect x="211" y="90" clip-path="url(#clipPath7)" fill="none" width="19" stroke-dasharray="none" height="39" stroke-width="0.1" />
    </g>
    <g stroke-width="0.1" font-size="23" font-family="'Segoe UI'" stroke-linecap="butt">
      <text xml:space="preserve" x="232" y="115" clip-path="url(#clipPath8)" stroke="none">out</text>
      <rect x="211" y="150" clip-path="url(#clipPath9)" fill="rgb(194,239,255)" width="20" height="40" stroke="none" />
      <rect x="211" y="150" clip-path="url(#clipPath9)" fill="none" width="19" height="39" stroke="rgb(194,239,255)" />
      <text xml:space="preserve" x="232" y="175" clip-path="url(#clipPath10)" stroke="none">in01</text>
      <line clip-path="url(#clipPath11)" fill="none" x1="211" x2="81" y1="90" y2="90" stroke="rgb(136,136,136)" stroke-width="2.1" />
      <text x="69" y="90" clip-path="url(#clipPath12)" stroke="none" stroke-width="2.1" xml:space="preserve">oeHelloWorld()</text>
      <line clip-path="url(#clipPath13)" fill="none" x1="88" x2="81" y1="87" y2="90" stroke="rgb(136,136,136)" stroke-width="2.1" />
      <line clip-path="url(#clipPath13)" fill="none" x1="81" x2="88" y1="90" y2="93" stroke="rgb(136,136,136)" stroke-width="2.1" />
    </g>
    <g stroke-linecap="butt" font-size="23" fill="rgb(136,136,136)" font-family="'Segoe UI'" stroke-dasharray="5,5" stroke="rgb(136,136,136)" stroke-width="2.1">
      <line clip-path="url(#clipPath11)" fill="none" x1="211" x2="81" y1="150" y2="150" />
      <text x="24" y="150" clip-path="url(#clipPath14)" fill="black" stroke="none" xml:space="preserve">ieHelloWorld(Hello You)</text>
      <line clip-path="url(#clipPath15)" fill="none" x1="204" x2="211" y1="153" y2="150" stroke-dasharray="none" />
      <line clip-path="url(#clipPath15)" fill="none" x1="211" x2="204" y1="150" y2="147" stroke-dasharray="none" />
    </g>
  </g>
</svg>

